<svg width="40" height="40" viewBox="0 0 40 40" fill="none" xmlns="http://www.w3.org/2000/svg">
  <path d="M20 35C26.6274 35 32 29.6274 32 23C32 16.3726 20 4 20 4C20 4 8 16.3726 8 23C8 29.6274 13.3726 35 20 35Z" fill="url(#paint0_linear_logo)"/>
  <path d="M20 31C24.4183 31 28 27.4183 28 23C28 18.5817 20 10 20 10C20 10 12 18.5817 12 23C12 27.4183 15.5817 31 20 31Z" fill="white" fill-opacity="0.3"/>
  <path d="M12 24C12 24 15 27 20 27C25 27 28 24 28 24" stroke="white" stroke-width="1.5" stroke-linecap="round" stroke-linejoin="round" opacity="0.6"/>
  <defs>
    <linearGradient id="paint0_linear_logo" x1="20" y1="4" x2="20" y2="35" gradientUnits="userSpaceOnUse">
      <stop stop-color="#0ea5e9"/>
      <stop offset="1" stop-color="#0369a1"/>
    </linearGradient>
  </defs>
</svg>
